<svg width="24" height="24" viewBox="0 0 24 24" fill="none" xmlns="http://www.w3.org/2000/svg">
<path d="M12.1667 21.3934C11.8703 21.3934 11.5835 21.3552 11.3444 21.2692C7.69199 20.0166 1.88821 15.5706 1.88821 9.00187C1.88821 5.65538 4.59409 2.93994 7.92146 2.93994C9.53734 2.93994 11.048 3.57099 12.1667 4.69924C13.2854 3.57099 14.7961 2.93994 16.412 2.93994C19.7394 2.93994 22.4452 5.66494 22.4452 9.00187C22.4452 15.5801 16.6415 20.0166 12.989 21.2692C12.75 21.3552 12.4631 21.3934 12.1667 21.3934ZM7.92146 4.37415C5.38769 4.37415 3.32242 6.44898 3.32242 9.00187C3.32242 15.5323 9.60427 19.1656 11.813 19.921C11.9851 19.9784 12.358 19.9784 12.5301 19.921C14.7292 19.1656 21.0206 15.5419 21.0206 9.00187C21.0206 6.44898 18.9553 4.37415 16.4215 4.37415C14.9682 4.37415 13.6201 5.05301 12.75 6.22906C12.4822 6.5924 11.8703 6.5924 11.6026 6.22906C10.7134 5.04345 9.37479 4.37415 7.92146 4.37415Z" fill="#F3F3F3"/>
</svg>
